# xmcd
# 
# Track frame offsets:
#     182
#     8957
#     19107
#     26860
#     37782
#     48977
#     60220
#     70287
#     82290
#     91875
#     102435
#     113625
#     124417
#     135510
#     144607
#     154785
#     164857
#     175457
#     185945
#     195835
#     205747
#     215757
#     225807
#     235962
#     248400
#     257812
# 
# Disc length: 3557
# 
# Revision: 1
# Processed by: cddbd v1.5.2PL0 Copyright (c) Steve Scherf et al.
# Submitted via: fre:ac v1.0.17
# 
DISCID=6c0de31a
DTITLE=Various Artist - Welcome To My World, Part 6
DYEAR=0
DGENRE=Country
TTITLE0=Jim Reeves - Throw Another Log On The Fire
TTITLE1=Jim Reeves - Making Believe
TTITLE2=Jim Reeves - 'til The End Of The World
TTITLE3=Jim Reeves - How's The World Treating You
TTITLE4=Jim Reeves - Someday (You'll Want Me To Want You)
TTITLE5=Jim Reeves - Just Call Me Lonesome
TTITLE6=Jim Reeves - (Now And Then There's) A Fool Such As I
TTITLE7=Jim Reeves - May The Good Lord Bless And Keep You
TTITLE8=Jim Reeves - Dear Hearts And Gentle People
TTITLE9=Jim Reeves - Am I Losing You?
TTITLE10=Jim Reeves - Satan Can't Hold Me
TTITLE11=Jim Reeves - Scarlet Ribbons (For Her Hair)
TTITLE12=Jim Reeves - If Heartache Is The Fashion
TTITLE13=Jim Reeves - Home
TTITLE14=Jim Reeves - Partners
TTITLE15=Jim Reeves - I'm Beginning To Forget You
TTITLE16=Jim Reeves - He'll Have To Go
TTITLE17=Jim Reeves - In A Mansion Stands My Love
TTITLE18=Jim Reeves - After Awhile
TTITLE19=Jim Reeves - Snow Flake
TTITLE20=Jim Reeves and Dorothy Ann Dillard - But You Love Me Daddy
TTITLE21=Jim Reeves and Steve Moore - But You Love Me Daddy
TTITLE22=Jim Reeves - You'll Never Be Mine Again
TTITLE23=Jim Reeves - Stand At Your Window
TTITLE24=Jim Reeves - What Would You Do?
TTITLE25=Jim Reeves - Don't You Want To Be My Girl (Poor Little Doll)
EXTD=
EXTT0=
EXTT1=
EXTT2=
EXTT3=
EXTT4=
EXTT5=
EXTT6=
EXTT7=
EXTT8=
EXTT9=
EXTT10=
EXTT11=
EXTT12=
EXTT13=
EXTT14=
EXTT15=
EXTT16=
EXTT17=
EXTT18=
EXTT19=
EXTT20=
EXTT21=
EXTT22=
EXTT23=
EXTT24=
EXTT25=
PLAYORDER=
